<?xml version="1.0" encoding="utf-8"?>
<!-- Generator: Adobe Illustrator 25.0.0, SVG Export Plug-In . SVG Version: 6.00 Build 0)  -->
<svg version="1.1" id="Layer_1" xmlns="http://www.w3.org/2000/svg" xmlns:xlink="http://www.w3.org/1999/xlink" x="0px" y="0px"
	 viewBox="0 0 1719.2 1372.5" style="enable-background:new 0 0 1719.2 1372.5;" xml:space="preserve">
<style type="text/css">
	.st0{display:none;}
	.st1{display:inline;fill:#916B2D;stroke:#000000;stroke-miterlimit:10;}
	.st2{display:inline;fill:#FFFFFF;}
	.st3{fill:#FFFFFF;stroke:#000000;stroke-miterlimit:10;}
	.st4{display:inline;fill:url(#SVGID_1_);}
	.st5{display:none;fill:#FFFFFF;stroke:#000000;stroke-miterlimit:10;}
	.st6{fill:url(#SVGID_2_);}
</style>
<g id="Layer_3" class="st0">
	<rect x="-75.3" y="-31.4" class="st1" width="1843.2" height="1465"/>
	<path class="st2" d="M241.7,795.5c32.5,76.4,67.9,136.8,106.2,181.3c40.4,45.9,84.6,77,132.6,93.5c45.1,15.5,86.7,16,124.9,1.6
		s63.7-40.6,76.7-78.4c14.2-41.2,13-77.8-3.5-109.8C660,852.4,610,809.3,528.7,754.5C418,679.4,346.2,606.8,313.5,536.7
		c-32.9-71.4-33.4-153.5-1.5-246.2c41.1-120.1,115-204.1,221.4-252C639-10.3,756-12.7,884.4,31.4c72.5,24.9,135,57,187.3,96.1
		c55.5,40.1,104.8,88.1,147.8,144.2l-192.1,208.9c-26.5-45.5-57.9-84.4-94-116.7c-35.4-30.7-72.8-52.8-112.2-66.3
		c-40-13.7-76.8-15.2-110.5-4.3c-32.2,10.1-53.7,30.9-64.5,62.4c-10.4,30.4-7.9,59.4,7.5,87.1c16.9,27,54.8,60.1,113.5,99.5
		c2.1,1.4,3.9,2.5,5.5,3.3c2.4,1.4,4.8,3,7,4.8c126.8,85.2,204.5,158.6,233.2,220.3c19.1,39.2,29.3,84,30.6,134.4
		c0.3,47.5-8.8,98.2-27.3,152c-45.6,132.9-126.3,225.3-241.9,277.1c-115.8,50.5-246.4,50.9-391.6,1
		c-89.3-30.7-163.9-72.6-223.9-125.9S45.9,1085.6,0,997.5L241.7,795.5z"/>
	<polygon class="st2" points="1719.2,1351.3 1176,680.2 1675.8,41.4 1246.3,41.4 822.9,630.2 822.9,768.8 1259.3,1351.3 	"/>
</g>
<g id="Layer_3_copy" class="st0">
	<rect x="-75.3" y="-31.4" class="st3" width="1843.2" height="1465"/>
	
		<linearGradient id="SVGID_1_" gradientUnits="userSpaceOnUse" x1="375.2673" y1="-55.2828" x2="1718.525" y2="1287.975" gradientTransform="matrix(1 0 0 -1 0 1372)">
		<stop  offset="0" style="stop-color:#A6A5A5"/>
		<stop  offset="0" style="stop-color:#FF183F"/>
		<stop  offset="8.070554e-02" style="stop-color:#FF1F49"/>
		<stop  offset="0.2186" style="stop-color:#FF3164"/>
		<stop  offset="0.3961" style="stop-color:#FF4F90"/>
		<stop  offset="0.4279" style="stop-color:#FF5599"/>
		<stop  offset="0.4701" style="stop-color:#FF5D92"/>
		<stop  offset="0.6273" style="stop-color:#FF787D"/>
		<stop  offset="0.7201" style="stop-color:#FF8275"/>
		<stop  offset="0.8378" style="stop-color:#FF8A6F"/>
		<stop  offset="1" style="stop-color:#FF906A"/>
	</linearGradient>
	<path class="st4" d="M1719.2,1351.3L1176,680.2l499.9-638.8h-429.5l-104,144.6c-22.3-21.1-45.8-40.6-70.6-58.4
		C1019.4,88.4,957,56.3,884.4,31.4C756-12.7,639-10.3,533.4,38.5C427,86.4,353.1,170.4,311.9,290.5c-31.9,92.7-31.4,174.8,1.5,246.2
		c32.7,70.1,104.4,142.7,215.2,217.8c81.3,54.8,131.3,97.9,149.9,129.2c16.5,31.9,17.6,68.5,3.5,109.8c-13,37.8-38.5,64-76.7,78.4
		s-79.8,13.9-124.9-1.6c-48-16.5-92.1-47.6-132.6-93.5c-38.3-44.5-73.7-104.9-106.2-181.3L0,997.5c45.9,88.1,98.9,158.8,158.9,212
		s134.6,95.2,223.9,125.9c145.3,49.9,275.8,49.5,391.6-1c115.6-51.8,196.2-144.2,241.9-277.1c2.4-7.1,4.7-14.2,6.8-21.2l236.2,315.3
		h459.9V1351.3z M772.8,545.8c-1.6-0.9-3.5-2-5.5-3.3c-58.7-39.4-96.6-72.6-113.5-99.5c-15.4-27.7-17.9-56.7-7.5-87.1
		c10.8-31.5,32.3-52.3,64.5-62.4c33.7-10.8,70.5-9.4,110.5,4.3c39.4,13.6,76.8,35.7,112.2,66.3c16.4,14.7,31.8,30.7,46.3,48.1
		L846.4,597.6c-20.5-15.3-42.7-30.9-66.6-47C777.5,548.8,775.2,547.2,772.8,545.8z"/>
</g>
<g id="Layer_3_copy_1_">
	<rect x="-75.3" y="-31.4" class="st5" width="1843.2" height="1465"/>
	
		<linearGradient id="SVGID_2_" gradientUnits="userSpaceOnUse" x1="375.2673" y1="-55.2828" x2="1718.525" y2="1287.975" gradientTransform="matrix(1 0 0 -1 0 1372)">
		<stop  offset="0" style="stop-color:#A6A5A5"/>
		<stop  offset="0" style="stop-color:#FF00B9"/>
		<stop  offset="9.371372e-02" style="stop-color:#ED00C5"/>
		<stop  offset="0.2799" style="stop-color:#C000E5"/>
		<stop  offset="0.4177" style="stop-color:#9A00FF"/>
		<stop  offset="0.4205" style="stop-color:#9903FF"/>
		<stop  offset="0.4888" style="stop-color:#893BFF"/>
		<stop  offset="0.5592" style="stop-color:#7A6EFF"/>
		<stop  offset="0.6299" style="stop-color:#6E98FF"/>
		<stop  offset="0.7012" style="stop-color:#64BBFF"/>
		<stop  offset="0.7732" style="stop-color:#5CD6FF"/>
		<stop  offset="0.8463" style="stop-color:#56E9FF"/>
		<stop  offset="0.921" style="stop-color:#53F4FF"/>
		<stop  offset="1" style="stop-color:#52F8FF"/>
	</linearGradient>
	<path class="st6" d="M1719.2,1351.3L1176,680.2l499.9-638.8h-429.5l-104,144.6c-22.3-21.1-45.8-40.6-70.6-58.4
		C1019.4,88.4,957,56.3,884.4,31.4C756-12.7,639-10.3,533.4,38.5C427,86.4,353.1,170.4,311.9,290.5c-31.9,92.7-31.4,174.8,1.5,246.2
		c32.7,70.1,104.4,142.7,215.2,217.8c81.3,54.8,131.3,97.9,149.9,129.2c16.5,31.9,17.6,68.5,3.5,109.8c-13,37.8-38.5,64-76.7,78.4
		s-79.8,13.9-124.9-1.6c-48-16.5-92.1-47.6-132.6-93.5c-38.3-44.5-73.7-104.9-106.2-181.3L0,997.5c45.9,88.1,98.9,158.8,158.9,212
		s134.6,95.2,223.9,125.9c145.3,49.9,275.8,49.5,391.6-1c115.6-51.8,196.2-144.2,241.9-277.1c2.4-7.1,4.7-14.2,6.8-21.2l236.2,315.3
		h459.9V1351.3z M772.8,545.8c-1.6-0.9-3.5-2-5.5-3.3c-58.7-39.4-96.6-72.6-113.5-99.5c-15.4-27.7-17.9-56.7-7.5-87.1
		c10.8-31.5,32.3-52.3,64.5-62.4c33.7-10.8,70.5-9.4,110.5,4.3c39.4,13.6,76.8,35.7,112.2,66.3c16.4,14.7,31.8,30.7,46.3,48.1
		L846.4,597.6c-20.5-15.3-42.7-30.9-66.6-47C777.5,548.8,775.2,547.2,772.8,545.8z"/>
</g>
</svg>
